<svg viewBox="0 0 32 39" fill="none" xmlns="http://www.w3.org/2000/svg">
    <path d="M27.6757 10.4047H22.7114V8.68541C22.7114 6.30526 22.0917 4.26721 20.9596 2.81203C19.8194 1.34642 18.1783 0.5 16.2237 0.5C14.2692 0.5 12.628 1.34642 11.4879 2.81203C10.3558 4.26721 9.73612 6.30526 9.73612 8.68541V10.4047H4.32454C3.64039 10.4047 3.19159 10.967 3.08504 11.5224L3.08155 11.5406L3.07941 11.559L0.53638 33.5026C0.370231 34.7484 0.784864 36.0713 1.54125 36.9681C2.31415 37.9651 3.51008 38.5 4.69877 38.5H27.2287C28.4142 38.5 29.6053 37.965 30.3778 36.9789C31.2182 36.0774 31.6295 34.7483 31.4638 33.5026L28.9208 11.559L28.9187 11.5406L28.9152 11.5224C28.8086 10.967 28.3598 10.4047 27.6757 10.4047ZM28.9742 33.8606L28.9744 33.8623C29.0325 34.3478 28.8585 34.9185 28.568 35.2991C28.1876 35.6944 27.722 35.9179 27.3016 35.9179H4.69907C4.18443 35.9179 3.72847 35.6762 3.44635 35.3168C3.15321 34.9434 2.96518 34.3625 3.02667 33.7805C3.02675 33.7797 3.02683 33.779 3.02691 33.7782L5.44239 13.0663H26.5551L28.9742 33.8606ZM12.2332 8.76246C12.2332 7.39337 12.5226 5.9674 13.1711 4.90191C13.8052 3.86018 14.7771 3.1618 16.2239 3.1618C17.6705 3.1618 18.6424 3.86078 19.2766 4.90303C19.9252 5.969 20.2146 7.39502 20.2146 8.76246V10.4817H12.2332V8.76246Z" fill="#AE2946" stroke="#AE2946"/>
</svg>