<svg viewBox="0 0 512 368" fill="none" xmlns="http://www.w3.org/2000/svg">
    <path d="M503.93 141.055L398.946 36.0708L337.524 97.493L442.507 202.477L503.93 141.055Z" fill="#F23488"/>
    <path d="M182.885 8.07178L331.346 8.07878V95.0088H182.891L182.885 8.07178Z" fill="#23CE9E"/>
    <path d="M337.517 97.499L442.498 202.481L381.08 263.9L331.339 214.16V181.878L331.346 103.669L337.517 97.499Z" fill="#CE246E"/>
    <path d="M331.346 103.669L331.339 181.878H261.086L232.548 153.34L182.885 103.677L182.891 95.0088H331.346V103.669Z" fill="#1AB281"/>
    <path d="M331.339 181.878V214.16L331.345 266.487C328.444 254.481 322.309 243.102 312.938 233.732L293.966 214.76L261.085 181.879L331.339 181.878Z" fill="#129665"/>
    <path d="M331.339 214.16L381.08 263.901L331.339 313.642V299.307C333.947 288.541 333.953 277.268 331.345 266.488L331.339 214.16Z" fill="#AF1A5B"/>
    <path d="M293.968 214.759L312.94 233.731C322.311 243.102 328.446 254.481 331.347 266.486L331.341 299.305C328.434 311.304 322.305 322.676 312.941 332.04L307.37 337.611L306.269 338.712C279.126 365.855 235.11 365.848 207.966 338.706L188.994 319.734L293.968 214.759Z" fill="#E4EAEA"/>
    <path d="M261.086 181.878L293.968 214.759L188.993 319.734L127.573 258.315L232.548 153.34L261.086 181.878Z" fill="#AD6102"/>
    <path d="M182.885 103.677L232.548 153.34L127.573 258.315L66.147 196.889L171.122 91.9136L182.885 103.677Z" fill="#D1800D"/>
    <path d="M171.122 91.9065L113.05 33.8345L8.07424 138.811L66.1462 196.883L171.122 91.9065Z" fill="#EA9B22"/>
    <path d="M272.429 320.518C283.006 320.518 291.581 311.943 291.581 301.366C291.581 290.788 283.006 282.214 272.429 282.214C261.852 282.214 253.277 290.788 253.277 301.366C253.277 311.943 261.852 320.518 272.429 320.518Z" fill="#7A8280"/>
    <path d="M318.649 228.021L176.836 86.2076C176.836 86.2076 176.834 86.2056 176.833 86.2036C176.832 86.2016 176.831 86.2016 176.829 86.2006L118.76 28.1316C115.606 24.9776 110.493 24.9776 107.341 28.1316L77.127 58.3456C73.973 61.4996 73.973 66.6126 77.127 69.7646C80.281 72.9186 85.394 72.9186 88.546 69.7646L113.051 45.2606L159.704 91.9136L66.148 185.469L19.495 138.816L70.541 87.7706C73.695 84.6166 73.695 79.5036 70.541 76.3516C67.387 73.1966 62.274 73.1976 59.122 76.3516L2.365 133.107C0.851 134.621 0 136.675 0 138.817C0 140.958 0.851 143.013 2.365 144.527L202.255 344.417C216.907 359.069 236.391 367.14 257.115 367.142C257.118 367.142 257.119 367.142 257.123 367.142C277.844 367.142 297.327 359.073 311.977 344.423L318.65 337.751C328.738 327.663 335.84 315.026 339.187 301.208C342.09 289.228 342.092 276.565 339.196 264.592C335.855 250.769 328.751 238.123 318.649 228.021ZM171.122 103.334L221.129 153.341L159.777 214.692C156.623 217.846 156.623 222.959 159.777 226.111C161.353 227.687 163.42 228.476 165.487 228.476C167.554 228.476 169.62 227.688 171.197 226.111L232.549 164.759L282.548 214.758L188.992 308.314L138.993 258.315L151.941 245.367C155.095 242.213 155.095 237.1 151.941 233.948C148.787 230.794 143.674 230.794 140.522 233.948L127.574 246.896L77.567 196.889L171.122 103.334ZM323.491 297.403C320.842 308.338 315.218 318.34 307.229 326.33L300.556 333.003C288.956 344.603 273.531 350.992 257.122 350.992C257.122 350.992 257.118 350.992 257.116 350.992C240.705 350.991 225.277 344.6 213.674 332.997L200.412 319.735L293.968 226.179L307.23 239.441C315.231 247.443 320.856 257.45 323.498 268.386C325.794 277.876 325.791 287.909 323.491 297.403Z" fill="black"/>
    <path d="M182.891 83.094C187.351 83.094 190.966 79.479 190.966 75.019L190.961 16.148L323.273 16.153L323.27 86.934H199.557C195.097 86.934 191.482 90.549 191.482 95.009C191.482 99.469 195.097 103.084 199.557 103.084H323.268L323.265 173.802H292.21C287.75 173.802 284.135 177.417 284.135 181.877C284.135 186.337 287.75 189.952 292.21 189.952H323.264L323.265 225.918C323.265 230.378 326.882 233.993 331.341 233.992C335.801 233.991 339.416 230.375 339.415 225.916L339.418 95.056C339.418 95.041 339.42 95.026 339.42 95.011C339.42 94.996 339.418 94.981 339.418 94.966L339.42 8.081C339.42 3.621 335.806 0.0059967 331.345 0.0059967L182.883 0C180.742 0 178.687 0.850998 177.173 2.365C175.658 3.88 174.808 5.933 174.808 8.076L174.813 75.023C174.816 79.48 178.432 83.094 182.891 83.094Z" fill="black"/>
    <path d="M509.635 135.345L404.652 30.363C403.138 28.848 401.084 27.998 398.942 27.998C396.8 27.998 394.746 28.849 393.232 30.363L345.002 78.593C341.848 81.747 341.848 86.86 345.002 90.012C348.156 93.166 353.269 93.166 356.421 90.012L398.942 47.491L492.504 141.053L489.965 143.592C486.811 146.746 486.811 151.859 489.965 155.011C491.541 156.587 493.608 157.376 495.675 157.376C497.742 157.376 499.808 156.588 501.385 155.011L509.634 146.762C511.149 145.248 511.999 143.194 511.999 141.052C512 138.912 511.148 136.858 509.635 135.345Z" fill="black"/>
    <path d="M470.203 163.357L442.499 191.061L355.867 104.429C352.713 101.275 347.6 101.275 344.448 104.429C341.294 107.583 341.294 112.696 344.448 115.848L431.08 202.48L381.081 252.479L354.422 225.82C351.268 222.666 346.155 222.666 343.003 225.82C339.849 228.974 339.849 234.087 343.003 237.239L369.662 263.898L345.518 288.042C342.364 291.196 342.364 296.309 345.518 299.461C347.094 301.038 349.161 301.826 351.228 301.826C353.295 301.826 355.361 301.038 356.938 299.461L481.625 174.774C484.779 171.62 484.779 166.507 481.625 163.355C478.468 160.204 473.355 160.205 470.203 163.357Z" fill="black"/>
    <path d="M291.679 282.114C281.064 271.5 263.79 271.499 253.175 282.114C248.033 287.256 245.2 294.093 245.2 301.366C245.2 308.639 248.032 315.476 253.175 320.618C258.483 325.926 265.454 328.58 272.427 328.58C279.4 328.58 286.371 325.926 291.679 320.618C302.293 310.002 302.293 292.729 291.679 282.114ZM280.258 309.198C275.94 313.516 268.912 313.516 264.594 309.198C262.502 307.106 261.35 304.325 261.35 301.366C261.35 298.407 262.502 295.625 264.594 293.534C266.753 291.374 269.59 290.295 272.426 290.295C275.263 290.295 278.1 291.374 280.258 293.534C284.577 297.852 284.577 304.88 280.258 309.198Z" fill="black"/>
</svg>