<svg viewBox="0 0 94 93" fill="none" xmlns="http://www.w3.org/2000/svg">
<path fill-rule="evenodd" clip-rule="evenodd" d="M67.1 79.2331C73.4626 75.1683 73.816 75.5207 70.458 77.9957C67.1 80.4687 73.1092 76.9354 69.9284 79.2331L68.5147 80.6468C68.5147 80.6468 66.217 83.298 64.6261 83.4742C63.0352 83.6505 66.3922 83.298 64.0954 84.3592C61.7977 85.4185 44.9882 93.003 17.7902 73.224C25.3912 85.9492 38.8223 91.6049 50.1338 91.7811C50.1338 91.7811 46.5976 91.7811 48.5429 92.1346C50.4872 92.488 47.6588 95.1382 31.045 88.9538C31.7538 90.5437 31.93 91.0733 33.8744 92.1346C33.8744 92.1346 12.1344 84.7107 4.53634 62.7965C4.71256 65.4467 4.88879 68.4523 4.88879 68.4523C4.88879 68.4523 -6.07025 49.0101 7.0103 24.9744C20.0889 0.938715 48.8973 0.0556447 52.7849 0.23187C56.6736 0.408094 78.4105 5.35699 83.3594 10.4831C88.3093 15.6072 80.8865 12.2502 80.8865 12.2502C80.8865 12.2502 78.4105 13.6639 82.4773 15.7835C86.5412 17.9059 90.9595 24.9744 87.6005 22.3233C84.2435 19.6731 89.1914 25.505 89.722 25.8585C90.2517 26.2119 82.2992 22.3233 84.4207 24.621C86.5412 26.9178 95.7312 36.9927 92.7276 39.9983C89.722 43.0019 88.6608 34.695 88.1311 34.1654C87.6005 33.6338 89.0171 46.3599 88.1311 48.4795C87.2471 50.601 87.4243 43.7097 85.6582 41.5882C83.891 39.4677 83.3594 39.6439 82.122 39.6439C80.8865 39.6439 77.5285 36.2869 77.1741 34.3416C76.8206 32.3973 75.7604 31.8667 74.1685 30.2767C72.5786 28.6858 70.1046 27.0959 67.1 27.2722C64.0954 27.4493 65.6863 23.7369 60.5602 23.7369C55.4351 23.7369 52.4296 22.8548 48.0123 24.7982C43.595 26.7425 35.4643 29.0393 34.7565 29.2155C34.0496 29.3927 42.1793 24.7982 43.4178 24.0904C44.6543 23.3845 24.1528 28.6858 20.7948 36.8156C17.4358 44.9472 14.4332 58.9079 25.9209 71.6321C37.4086 84.3592 57.9091 85.5948 67.1 79.2331Z" fill="#AE2946"/>
</svg>
